<svg width="100" height="100" viewBox="0 0 100 100" fill="none" xmlns="http://www.w3.org/2000/svg">
<path fill-rule="evenodd" clip-rule="evenodd" d="M79 80.4223C91.7115 73.9857 100 63.4301 100 51.5C100 43.629 96.3922 36.4484 90.2866 30.5949L86 32.5L81.5 34.5L79.6845 35.4077C86.3332 38.1365 91 44.538 91 52C91 61.9411 82.7173 70 72.5 70C62.2827 70 54 61.9411 54 52C54 45.6433 57.3866 40.0563 62.5 36.8537C62.7126 36.7205 62.9282 36.5915 63.1466 36.4667L64.5 35.5L67 34L70 32.5L77 29.5L82.5 27.5L89.879 24.6889C92.779 22.7694 96.2754 18.2662 97.5 7C97.0652 11 70.7968 19.1365 68 18.37C62.4149 16.8393 56.3455 16 50 16C43.6545 16 37.5851 16.8393 32 18.37C29.2032 19.1365 2.93478 11 2.5 7C3.71984 18.2226 7.20453 22.7435 10.1072 24.6837L17.5 27.5L23 29.5L30 32.5L33 34L35.5 35.5L36.8534 36.4667C37.0718 36.5915 37.2874 36.7205 37.5 36.8537C42.6134 40.0563 46 45.6433 46 52C46 61.9411 37.7173 70 27.5 70C17.2827 70 9 61.9411 9 52C9 44.538 13.6668 38.1365 20.3155 35.4077L18.5 34.5L14 32.5L9.71344 30.5949C3.60785 36.4484 0 43.629 0 51.5C0 63.4301 8.2885 73.9857 21 80.4223C28 88 39.1887 93 50 93C60.8113 93 72 88 79 80.4223ZM53.1973 81.318C54.324 79.9929 55.4256 78.6465 57.9999 75.5001L58 75.5L58 75.5C56.0622 73.8044 55.0632 72.9303 54.0934 72.0249C53.0613 71.0613 52.0622 70.0622 50 68C47.9378 70.0622 46.9387 71.0613 45.9066 72.0249C44.9368 72.9303 43.9378 73.8045 42 75.5L42 75.5L42.0001 75.5001C44.5744 78.6465 45.676 79.9929 46.8027 81.318C47.6455 82.3091 48.5023 83.2883 50 85L50 85L50 85L50.0004 84.9995C51.4979 83.2881 52.3546 82.309 53.1973 81.318ZM65.5 52C65.5 55.2949 68.335 58.5 72.5 58.5C76.6651 58.5 79.5 55.2949 79.5 52C79.5 49.3785 77.7617 46.8613 74.8995 45.8898C74.1685 45.6417 73.3653 45.5 72.5 45.5C71.021 45.5 69.6972 45.9153 68.6042 46.5999C66.6231 47.8407 65.5 49.8628 65.5 52ZM27.5 58.5C31.665 58.5 34.5 55.2949 34.5 52C34.5 49.8628 33.3769 47.8407 31.3958 46.5999C30.3028 45.9153 28.9791 45.5 27.5 45.5C26.6347 45.5 25.8315 45.6417 25.1005 45.8898C22.2383 46.8613 20.5 49.3785 20.5 52C20.5 55.2949 23.3349 58.5 27.5 58.5Z" fill="black"/>
</svg>
